<?xml version="1.0" standalone="no"?>
<!DOCTYPE svg PUBLIC "-//W3C//DTD SVG 20010904//EN"
 "http://www.w3.org/TR/2001/REC-SVG-20010904/DTD/svg10.dtd">
<svg version="1.0" xmlns="http://www.w3.org/2000/svg"
 width="376.000000pt" height="482.000000pt" viewBox="0 0 376.000000 482.000000"
 preserveAspectRatio="xMidYMid meet">

<g transform="translate(0.000000,482.000000) scale(0.100000,-0.100000)"
fill="#000000" stroke="none">
<path d="M13 2878 c2 -1777 4 -1951 19 -2033 72 -383 215 -580 473 -651 94
-25 285 -29 546 -9 143 11 275 15 339 12 183 -11 337 -63 432 -147 26 -22 49
-40 53 -40 3 0 33 21 66 46 169 130 347 160 764 129 265 -19 455 -16 550 9
282 76 435 317 485 761 6 57 10 781 10 1978 l0 1887 -1870 0 -1870 0 3 -1942z
m2773 1812 c25 -15 54 -61 54 -83 0 -8 -7 -18 -16 -21 -22 -9 -54 -7 -54 2 0
23 -43 52 -76 52 -74 0 -118 -89 -95 -191 11 -50 58 -99 94 -99 38 0 87 37 87
65 0 23 -4 25 -40 25 -39 0 -40 1 -40 35 l0 35 75 0 75 0 0 -85 0 -85 -42 -27
c-35 -24 -52 -28 -107 -28 -79 0 -120 24 -153 88 -25 51 -34 147 -18 206 16
60 75 122 126 130 46 8 100 0 130 -19z m-2504 -72 l3 -93 70 92 70 92 49 1 48
0 -34 -42 c-19 -24 -49 -61 -67 -84 l-32 -41 65 -121 c37 -66 66 -123 66 -126
0 -3 -19 -6 -43 -6 l-43 0 -44 91 c-25 50 -48 93 -51 95 -4 2 -18 -13 -33 -34
-21 -30 -26 -50 -26 -95 l0 -57 -35 0 -35 0 0 210 0 210 35 0 34 0 3 -92z
m548 45 c86 -91 74 -285 -21 -356 -34 -25 -109 -33 -149 -17 -42 17 -87 72
-101 122 -16 60 -7 164 20 216 32 63 71 84 150 79 59 -3 66 -6 101 -44z m364
17 c-1 -14 -2 -28 -3 -32 0 -4 -22 -8 -48 -10 l-48 -3 -3 -172 -2 -173 -35 0
-35 0 0 175 0 175 -50 0 -50 0 0 35 0 36 138 -3 137 -3 -1 -25z m254 -180 l70
-210 -38 0 c-36 0 -39 2 -52 43 l-15 42 -71 3 -72 3 -12 -46 c-12 -44 -13 -45
-51 -45 -33 0 -38 3 -33 17 4 9 35 104 69 210 l61 193 37 0 37 0 70 -210z
m587 179 c37 -36 43 -89 16 -135 -22 -37 -22 -37 -2 -51 49 -34 45 -142 -6
-183 -22 -17 -40 -20 -139 -20 l-114 0 0 211 0 211 110 -4 c102 -3 111 -5 135
-29z m356 8 c56 -38 82 -96 82 -187 0 -143 -57 -215 -168 -215 -71 0 -115 25
-145 84 -58 115 -18 294 74 331 43 18 121 11 157 -13z m770 0 c108 -71 111
-304 6 -379 -44 -32 -143 -32 -184 -2 -92 69 -109 261 -30 351 38 43 58 52
123 52 37 1 60 -5 85 -22z m395 -9 c21 -20 28 -39 32 -80 4 -47 1 -58 -23 -86
-15 -18 -33 -32 -41 -32 -18 0 -18 -9 1 -29 8 -9 32 -49 54 -89 l39 -72 -42 0
-43 0 -49 83 c-44 73 -53 82 -81 85 l-33 3 0 -85 0 -86 -35 0 -35 0 0 211 0
211 115 -3 c109 -4 116 -6 141 -31z m-3244 -680 c0 -16 5 -28 11 -28 5 0 6 -8
3 -17 -4 -10 -4 -14 0 -10 4 3 19 -13 34 -36 14 -23 50 -63 79 -89 35 -31 50
-52 45 -60 -6 -10 -4 -10 8 0 9 7 19 9 22 4 3 -5 42 -24 86 -43 94 -39 216
-134 199 -156 -6 -6 -8 -17 -4 -23 4 -6 -10 -10 -39 -10 -25 0 -48 5 -51 10
-3 6 -25 9 -48 8 l-42 -1 45 -6 c43 -6 44 -7 48 -45 2 -25 -1 -42 -10 -47 -10
-7 -10 -9 -1 -9 10 0 12 -36 10 -149 -1 -82 1 -147 6 -144 4 2 7 15 7 29 0 23
2 24 70 24 59 0 72 -3 76 -17 18 -57 37 -85 70 -100 l35 -17 -3 -98 c-2 -71 0
-97 9 -94 14 6 45 -28 36 -39 -5 -4 -2 -5 5 -1 8 5 12 0 12 -14 0 -12 -4 -18
-10 -15 -5 3 -10 1 -10 -4 0 -6 7 -11 15 -11 8 0 15 7 15 16 0 10 6 14 15 10
8 -3 15 -2 15 2 0 10 -20 39 -20 29 0 -11 -50 23 -50 35 0 5 8 8 17 6 10 -2
27 6 37 16 14 14 21 16 24 7 2 -7 -1 -18 -7 -24 -13 -13 -15 -31 -3 -23 5 3
25 -44 46 -105 21 -60 41 -109 43 -109 3 0 33 13 68 30 52 25 63 35 68 60 4
18 13 30 22 30 9 0 13 5 10 11 -4 6 -13 8 -21 5 -16 -6 -73 64 -66 83 2 8 0
11 -6 7 -6 -4 -6 2 1 18 17 36 40 21 75 -49 17 -35 42 -69 54 -76 13 -6 20 -8
15 -4 -8 10 21 45 37 45 16 0 57 -68 46 -75 -6 -3 -16 -3 -22 1 -9 5 -9 2 1
-9 14 -18 2 -24 -15 -7 -7 7 -11 6 -11 -4 0 -8 4 -13 8 -10 4 2 10 0 13 -5 3
-5 -1 -11 -9 -15 -13 -5 -29 9 -30 26 0 12 -13 19 -19 10 -3 -5 1 -15 9 -22
17 -14 20 -40 5 -40 -5 0 -10 5 -10 10 0 6 -10 0 -21 -11 -22 -22 -158 -89
-181 -89 -9 0 -9 -3 -2 -8 6 -4 16 -22 22 -39 14 -41 -3 -44 -42 -8 l-27 25 7
-35 c7 -39 -7 -46 -38 -18 -17 15 -18 15 -18 -10 0 -33 -7 -34 -37 -5 l-23 21
0 -26 c0 -31 -6 -33 -32 -10 -17 15 -19 15 -36 0 -26 -23 -32 -21 -32 10 l0
26 -23 -21 c-30 -29 -37 -28 -37 5 0 25 -1 25 -18 10 -31 -28 -45 -21 -38 18
l7 35 -27 -25 c-37 -35 -57 -33 -43 2 6 15 15 33 20 39 7 9 -1 16 -28 24 -43
14 -119 52 -147 73 -18 13 -18 15 -1 40 23 35 42 34 125 -8 38 -19 71 -35 74
-35 2 0 21 49 43 110 36 105 62 146 49 78 -4 -24 -3 -29 4 -18 8 13 11 11 16
-7 4 -13 13 -23 20 -23 8 0 14 -11 15 -27 0 -16 3 -22 6 -14 4 11 10 8 24 -10
l17 -24 8 30 c6 26 8 27 15 10 7 -19 8 -19 8 2 1 26 -33 40 -54 23 -10 -9 -15
-7 -20 10 -3 11 -11 18 -16 15 -5 -4 -9 3 -9 15 0 12 -4 18 -10 15 -5 -3 -10
3 -10 13 0 11 -7 25 -16 33 -8 7 -13 20 -11 29 3 10 -8 25 -29 39 -18 13 -40
34 -49 48 -13 19 -19 22 -31 13 -7 -7 -20 -10 -29 -7 -8 4 -17 2 -20 -3 -4 -6
5 -10 19 -10 14 0 28 5 31 10 4 6 11 7 17 4 7 -5 6 -11 -5 -19 -9 -7 -12 -16
-8 -24 6 -10 10 -9 15 4 3 9 10 13 16 10 6 -4 8 -11 5 -16 -4 -5 2 -9 11 -9
15 0 14 -4 -6 -25 -12 -13 -26 -22 -31 -20 -4 3 -10 1 -13 -4 -7 -11 -46 -2
-46 10 0 5 5 9 11 9 5 0 7 5 4 10 -4 7 -12 7 -25 0 -25 -13 -30 -13 -30 5 0 8
-5 15 -12 15 -6 0 -1 12 13 27 13 14 18 23 10 18 -9 -5 -12 -3 -9 6 3 8 13 15
24 17 10 2 26 6 34 9 8 3 18 6 22 5 4 -1 0 15 -9 36 -15 38 -31 61 -20 30 4
-10 2 -18 -3 -18 -6 0 -13 0 -17 0 -5 0 -7 10 -7 21 1 11 -1 17 -5 14 -3 -4
-6 -19 -6 -33 -1 -45 -22 -72 -55 -72 -17 0 -30 5 -30 10 0 6 8 10 18 10 10 0
27 7 38 14 17 13 14 13 -21 1 -49 -17 -62 -18 -100 -1 -28 12 -26 12 29 8 42
-3 57 -2 52 7 -4 6 -34 11 -69 11 -60 1 -61 1 -32 14 l30 13 -52 6 c-29 3 -65
13 -80 22 -15 9 -19 13 -8 10 11 -4 52 -8 90 -10 l70 -4 -80 12 c-78 13 -145
39 -145 56 0 5 10 7 23 4 14 -3 7 4 -17 19 -42 24 -62 53 -29 41 10 -3 20 -10
23 -13 3 -4 14 -4 25 1 l20 8 -20 0 c-27 1 -81 36 -95 60 -14 27 0 27 28 1 11
-11 23 -16 27 -11 3 5 -3 12 -13 15 -28 9 -64 52 -67 79 -2 14 -8 35 -15 47
-14 26 -1 22 36 -12 14 -12 24 -16 28 -9 4 6 -6 17 -22 25 -28 14 -68 63 -59
72 2 2 15 -7 28 -20 16 -16 30 -22 38 -16 10 6 9 9 -7 14 -28 9 -62 53 -62 79
0 19 1 19 20 2 11 -10 17 -21 15 -26 -3 -4 0 -11 6 -15 8 -5 9 -3 4 6 -6 10
-3 12 11 6 14 -5 11 0 -8 16 -28 25 -48 58 -48 81 0 10 11 4 33 -16 18 -18 31
-35 30 -39 -2 -4 1 -9 6 -12 19 -12 4 25 -18 45 -25 23 -51 77 -51 106 0 15 2
15 14 -2 8 -11 12 -24 9 -30 -4 -5 -2 -7 2 -2 5 4 27 -10 49 -30 l40 -38 -42
49 c-40 47 -63 99 -61 141 0 12 6 4 15 -20 8 -21 19 -42 25 -46 6 -3 10 -9 10
-13 -1 -3 2 -6 7 -6 4 -1 23 -15 42 -33 26 -24 25 -21 -7 13 -52 55 -73 105
-72 167 0 40 2 44 10 25 5 -13 7 -28 3 -33 -3 -5 0 -9 6 -9 6 0 8 -4 5 -10 -3
-5 -1 -10 5 -10 6 0 8 -4 5 -10 -3 -5 -1 -10 5 -10 6 0 9 -4 6 -8 -3 -5 1 -9
8 -9 11 0 9 10 -7 41 -13 24 -22 63 -24 100 l-3 61 15 -39 c8 -21 12 -43 8
-49 -4 -6 -1 -7 7 -2 9 5 10 2 6 -12 -8 -25 17 -62 29 -43 6 9 4 11 -5 5 -10
-6 -12 -4 -7 9 4 9 3 15 -2 12 -5 -3 -9 4 -10 17 0 12 -3 58 -6 102 -3 62 -2
73 6 50 5 -16 10 -42 11 -57z m1329 -60 c-6 -16 -7 -36 -4 -45 5 -12 3 -14 -7
-8 -9 5 -11 4 -6 -4 12 -18 28 -2 20 21 -4 15 -3 18 6 13 8 -5 11 -4 7 2 -4 6
0 28 8 49 l15 39 -3 -61 c-2 -37 -11 -76 -24 -100 -16 -31 -18 -41 -7 -41 7 0
11 4 8 9 -3 4 0 8 6 8 6 0 8 5 5 10 -3 6 -1 10 5 10 6 0 9 3 7 8 -3 4 1 21 8
37 l13 30 1 -43 c1 -55 -21 -107 -67 -157 -29 -32 -30 -34 -5 -11 17 15 34 28
37 27 3 -1 6 2 5 6 0 3 6 10 15 15 9 5 16 19 16 31 0 12 5 29 10 37 8 12 10
12 10 -5 0 -44 -22 -95 -62 -141 l-42 -49 40 38 c22 20 44 34 49 30 4 -5 6 -3
2 2 -3 6 1 19 9 30 12 17 14 17 14 2 0 -29 -26 -83 -51 -106 -22 -20 -37 -57
-18 -45 5 3 8 8 6 12 -1 4 12 21 30 39 22 20 33 26 33 16 0 -23 -20 -56 -48
-81 -19 -16 -22 -21 -8 -16 14 6 17 4 11 -6 -5 -9 -4 -11 4 -6 6 4 9 11 6 15
-2 5 4 16 15 26 19 17 20 17 20 -1 0 -29 -27 -62 -67 -82 -28 -15 -32 -20 -19
-25 11 -5 15 -3 10 5 -5 7 -2 9 7 6 9 -3 25 5 38 18 13 14 26 23 28 20 9 -9
-31 -57 -59 -72 -16 -8 -26 -19 -22 -25 4 -7 14 -3 28 9 39 35 53 39 34 10
-10 -15 -15 -33 -13 -41 9 -21 -34 -67 -78 -86 -32 -14 -37 -19 -23 -24 11 -5
15 -3 10 5 -5 8 -2 9 9 5 10 -3 17 -3 17 2 0 4 11 13 25 19 24 11 25 11 15 -9
-14 -24 -68 -59 -95 -60 -20 0 -20 0 0 -8 12 -5 25 -3 33 6 7 7 18 13 24 13
20 0 0 -26 -38 -48 -24 -15 -31 -22 -16 -19 12 3 22 1 22 -4 0 -16 -62 -41
-139 -55 l-76 -13 65 4 c36 2 74 7 85 10 11 3 7 -1 -8 -10 -15 -9 -51 -19 -80
-22 l-52 -6 30 -13 c29 -13 28 -13 -32 -14 -35 0 -65 -5 -69 -11 -5 -9 10 -10
52 -7 55 4 57 4 29 -8 -16 -7 -38 -13 -47 -14 -10 0 -18 -4 -18 -10 0 -5 -13
-10 -30 -10 -28 0 -54 26 -55 55 0 6 -6 11 -12 11 -7 1 -17 2 -23 3 -6 1 -6
10 0 26 5 14 6 25 2 25 -4 0 -2 4 3 8 6 4 7 26 4 52 -3 25 -7 37 -7 28 -2 -15
-13 -18 -73 -18 l-70 0 3 33 c3 28 7 33 38 37 26 4 31 7 18 12 -22 9 -24 57
-3 59 8 1 25 2 37 3 71 4 2 126 -71 126 -50 -1 -81 -28 -95 -84 -7 -26 -16
-47 -22 -47 -5 1 -10 41 -12 91 l-3 90 113 1 c62 1 101 4 86 6 -16 2 -28 9
-28 14 0 6 4 7 10 4 6 -3 7 1 4 9 -3 9 -11 16 -17 16 -25 0 103 102 163 130
36 16 82 38 102 49 27 14 40 16 49 7 9 -8 10 -8 5 2 -5 8 11 30 45 60 29 26
65 66 79 89 15 23 30 39 34 36 4 -4 4 0 0 10 -3 10 -1 17 5 17 7 0 11 6 10 13
-2 6 1 32 7 57 l9 45 3 -59 c2 -32 -1 -72 -7 -88z m-610 10 c-4 -28 0 -61 11
-93 12 -37 14 -52 5 -57 -7 -4 2 -8 20 -8 27 0 30 -3 26 -21 -3 -11 -12 -23
-20 -26 -12 -5 -12 -7 -2 -14 7 -4 13 -21 14 -38 1 -17 10 -40 20 -51 18 -19
18 -20 0 -20 -18 0 -18 -1 1 -15 10 -8 15 -15 10 -15 -5 0 -1 -9 9 -20 11 -12
13 -20 6 -20 -7 0 -10 -3 -8 -7 3 -5 -10 -9 -29 -9 -22 -1 -31 2 -27 10 4 6
-1 5 -10 -2 -18 -15 -37 -8 -37 14 0 8 4 12 10 9 7 -4 7 3 0 20 -6 15 -8 36
-6 48 1 12 1 16 -1 9 -3 -7 -9 -9 -15 -6 -7 5 -8 2 -3 -6 5 -7 9 -32 10 -55 1
-40 0 -42 -30 -42 -30 0 -31 1 -29 46 1 25 -2 55 -6 66 -5 12 -7 -7 -6 -45 l1
-65 -30 0 c-29 0 -30 2 -31 42 0 24 -3 45 -6 49 -3 3 -5 -17 -4 -44 2 -48 2
-49 -25 -48 -15 0 -25 4 -23 8 3 5 -3 8 -12 8 -16 0 -16 1 1 20 10 11 14 20 9
20 -5 0 0 7 10 15 19 14 19 15 1 15 -18 0 -18 1 -1 13 11 8 19 29 20 52 2 21
9 41 16 43 9 3 9 6 -1 13 -10 6 -7 9 11 10 14 0 19 3 13 6 -7 2 -13 11 -13 19
0 9 -12 14 -37 14 l-38 1 31 13 c44 19 50 34 19 46 -35 13 -74 3 -107 -28 -28
-26 -28 -26 -28 -3 0 26 45 71 71 71 12 0 19 7 19 20 0 29 37 43 118 45 53 1
77 5 89 18 10 9 18 17 18 17 1 0 -1 -19 -4 -42z m2379 -433 l0 -65 85 0 85 0
0 -310 0 -310 -790 0 -790 0 0 310 0 310 85 0 85 0 0 65 0 65 620 0 620 0 0
-65z m-2505 -145 c-3 -5 -12 -10 -18 -10 -7 0 -6 4 3 10 19 12 23 12 15 0z
m111 -124 c27 -7 27 -7 6 -22 -17 -12 -20 -19 -12 -39 11 -28 8 -30 -20 -13
-16 10 -24 10 -41 0 -20 -13 -21 -12 -15 12 4 18 1 28 -14 39 -22 15 -17 27
11 27 10 0 24 10 30 22 l12 22 8 -21 c4 -11 20 -24 35 -27z m-541 -164 c-3 -3
-11 0 -18 7 -9 10 -8 11 6 5 10 -3 15 -9 12 -12z m1010 8 c-3 -5 -12 -10 -18
-10 -7 0 -6 4 3 10 19 12 23 12 15 0z m-752 -34 c7 -19 -1 -26 -31 -26 -25 0
-25 0 -6 19 23 24 30 25 37 7z m512 6 c-3 -3 0 -11 5 -17 8 -9 5 -14 -10 -18
-11 -3 -20 -1 -20 4 0 5 -5 9 -11 9 -8 0 -8 -4 0 -14 7 -8 20 -12 30 -9 9 2
23 -2 30 -11 10 -12 9 -14 -6 -11 -63 13 -83 14 -78 5 3 -6 21 -10 39 -10 20
0 40 -8 51 -20 10 -11 13 -20 7 -20 -7 0 -12 -7 -12 -15 0 -11 -7 -14 -25 -9
-20 5 -24 3 -20 -9 7 -18 -29 -29 -44 -14 -6 6 -11 7 -11 2 0 -4 -9 0 -20 10
-39 35 -15 71 38 55 20 -5 30 -5 27 1 -4 5 -15 9 -25 9 -10 0 -21 4 -24 8 -8
13 50 79 68 79 9 0 14 -3 11 -5z m-793 -154 c14 -18 32 -47 41 -64 15 -30 15
-33 -9 -68 l-25 -37 -31 43 c-17 24 -45 58 -62 76 -17 18 -24 31 -16 28 8 -2
28 -7 44 -11 27 -6 28 -5 24 30 -5 43 3 44 34 3z m1070 -3 c-4 -35 -3 -36 24
-30 16 4 35 8 42 11 19 6 14 -7 -13 -27 -13 -11 -38 -42 -56 -69 -35 -53 -41
-53 -71 -2 -18 30 -18 30 23 91 22 34 44 61 48 61 4 0 5 -16 3 -35z m-820 -21
c2 -19 0 -38 -5 -41 -6 -4 -7 0 -3 8 4 8 1 6 -7 -3 -8 -10 -20 -18 -26 -18 -7
0 -9 -5 -6 -10 4 -6 12 -7 18 -3 6 4 2 -6 -11 -22 -13 -17 -20 -35 -17 -47 5
-14 1 -18 -19 -18 -18 0 -32 -10 -48 -34 -23 -34 -24 -34 -47 -17 -15 12 -21
23 -16 31 5 9 4 11 -3 6 -7 -4 -12 -4 -12 1 0 4 23 20 50 36 42 23 55 37 82
92 18 35 39 66 47 68 9 3 17 5 17 6 1 0 4 -15 6 -35z m-149 -88 c9 -7 17 -16
17 -19 0 -6 -74 -47 -85 -47 -11 0 -4 23 16 51 23 33 27 34 52 15z m427 -37
c0 -11 -4 -17 -10 -14 -5 3 -10 13 -10 21 0 8 5 14 10 14 6 0 10 -9 10 -21z
m870 -910 l0 -440 -28 19 c-84 60 -177 187 -287 392 -80 150 -138 230 -165
230 -13 0 -35 -21 -63 -60 -23 -33 -47 -60 -52 -60 -6 0 -37 27 -70 60 -33 33
-65 60 -72 60 -6 0 -38 -29 -69 -65 -32 -36 -63 -65 -69 -65 -6 0 -37 32 -69
70 -67 81 -61 82 -137 -21 -28 -38 -54 -69 -58 -69 -3 0 -40 34 -81 75 -61 62
-76 72 -89 62 -28 -23 -118 -152 -201 -287 -92 -151 -152 -238 -210 -305 l-40
-46 0 445 0 446 880 0 880 0 0 -441z m943 61 c48 -129 96 -211 128 -222 33
-11 49 -35 49 -71 0 -15 10 -31 25 -41 19 -13 24 -22 19 -40 -4 -16 -1 -25 10
-29 9 -4 16 -16 16 -27 0 -12 7 -34 15 -49 8 -16 11 -31 8 -35 -4 -3 -6 -28
-4 -55 1 -39 -2 -52 -17 -63 -14 -9 -23 -34 -31 -85 -28 -181 -99 -293 -220
-345 -25 -12 -47 -21 -48 -22 -2 -1 2 -52 7 -112 12 -134 -2 -202 -56 -276
-73 -99 -129 -106 -174 -20 -18 36 -5 64 47 97 48 30 48 31 54 95 5 49 3 67
-8 79 -11 10 -14 28 -10 59 4 33 0 53 -14 76 -26 42 -24 72 7 102 21 22 32 25
67 21 23 -2 52 -8 65 -12 18 -6 30 1 63 34 41 40 41 42 37 100 -4 60 -32 125
-132 309 -60 111 -93 195 -102 262 l-7 54 32 -27 c18 -15 42 -27 53 -27 17 0
19 4 14 28 -36 155 -28 308 20 410 l26 57 18 -80 c10 -44 29 -109 43 -145z"/>
<path d="M667 4619 c-48 -37 -59 -147 -23 -218 21 -39 67 -57 105 -41 45 18
64 68 59 157 -3 67 -6 78 -31 99 -34 29 -76 31 -110 3z"/>
<path d="M1317 4530 c-10 -33 -17 -64 -17 -70 0 -10 72 -14 82 -4 7 6 -33 134
-42 134 -4 0 -14 -27 -23 -60z"/>
<path d="M1860 4590 l0 -50 54 0 c58 0 86 16 86 50 0 34 -28 50 -86 50 l-54 0
0 -50z"/>
<path d="M1860 4415 l0 -55 63 0 c70 0 87 10 87 51 0 44 -24 59 -91 59 l-59 0
0 -55z"/>
<path d="M2254 4625 c-34 -23 -47 -68 -42 -146 3 -66 6 -74 37 -101 27 -24 39
-29 64 -24 16 3 37 12 45 19 58 48 54 224 -6 256 -29 15 -74 14 -98 -4z"/>
<path d="M3024 4625 c-34 -23 -47 -68 -42 -146 3 -66 6 -74 37 -101 27 -24 39
-29 64 -24 16 3 37 12 45 19 58 48 54 224 -6 256 -29 15 -74 14 -98 -4z"/>
<path d="M3377 4633 c-4 -3 -7 -28 -7 -55 l0 -48 60 0 c52 0 62 3 76 25 20 30
10 63 -23 76 -28 10 -96 12 -106 2z"/>
<path d="M330 3921 c0 -6 4 -13 10 -16 6 -3 7 1 4 9 -7 18 -14 21 -14 7z"/>
<path d="M355 3820 c10 -11 20 -20 23 -20 3 0 -3 9 -13 20 -10 11 -20 20 -23
20 -3 0 3 -9 13 -20z"/>
<path d="M405 3810 c10 -11 20 -20 23 -20 3 0 -3 9 -13 20 -10 11 -20 20 -23
20 -3 0 3 -9 13 -20z"/>
<path d="M330 3816 c0 -2 8 -10 18 -17 15 -13 16 -12 3 4 -13 16 -21 21 -21
13z"/>
<path d="M410 3765 c13 -14 26 -25 28 -25 3 0 -5 11 -18 25 -13 14 -26 25 -28
25 -3 0 5 -11 18 -25z"/>
<path d="M340 3755 c13 -14 26 -25 28 -25 3 0 -5 11 -18 25 -13 14 -26 25 -28
25 -3 0 5 -11 18 -25z"/>
<path d="M390 3716 c0 -2 8 -10 18 -17 15 -13 16 -12 3 4 -13 16 -21 21 -21
13z"/>
<path d="M295 3690 c10 -11 20 -20 23 -20 3 0 -3 9 -13 20 -10 11 -20 20 -23
20 -3 0 3 -9 13 -20z"/>
<path d="M591 3663 c7 -12 15 -20 18 -17 3 2 -3 12 -13 22 -17 16 -18 16 -5
-5z"/>
<path d="M270 3645 c13 -14 26 -25 28 -25 3 0 -5 11 -18 25 -13 14 -26 25 -28
25 -3 0 5 -11 18 -25z"/>
<path d="M616 3631 c-4 -5 3 -7 14 -4 23 6 26 13 6 13 -8 0 -17 -4 -20 -9z"/>
<path d="M681 3627 c2 -1 13 -9 24 -17 19 -14 19 -14 6 3 -7 9 -18 17 -24 17
-6 0 -8 -1 -6 -3z"/>
<path d="M305 3571 c-3 -5 -2 -12 3 -15 5 -3 9 1 9 9 0 17 -3 19 -12 6z"/>
<path d="M587 3563 c3 -7 9 -13 14 -13 5 0 9 6 9 13 0 8 -6 14 -14 14 -8 0
-12 -6 -9 -14z"/>
<path d="M456 3547 c3 -10 9 -15 12 -12 3 3 0 11 -7 18 -10 9 -11 8 -5 -6z"/>
<path d="M453 3505 c0 -8 4 -15 9 -15 4 0 8 4 8 9 0 6 -4 12 -8 15 -5 3 -9 -1
-9 -9z"/>
<path d="M658 3503 c7 -3 16 -2 19 1 4 3 -2 6 -13 5 -11 0 -14 -3 -6 -6z"/>
<path d="M305 3410 c-3 -6 1 -7 9 -4 18 7 21 14 7 14 -6 0 -13 -4 -16 -10z"/>
<path d="M483 3405 c0 -8 4 -15 9 -15 4 0 8 4 8 9 0 6 -4 12 -8 15 -5 3 -9 -1
-9 -9z"/>
<path d="M330 3400 c-8 -5 -10 -10 -5 -10 6 0 17 5 25 10 8 5 11 10 5 10 -5 0
-17 -5 -25 -10z"/>
<path d="M438 3403 c7 -3 16 -2 19 1 4 3 -2 6 -13 5 -11 0 -14 -3 -6 -6z"/>
<path d="M624 3394 c-18 -14 -18 -15 4 -4 12 6 22 13 22 15 0 8 -5 6 -26 -11z"/>
<path d="M264 3385 c11 -8 24 -15 29 -15 4 0 5 -4 2 -10 -3 -6 1 -7 10 -4 13
5 10 10 -15 25 -36 22 -53 25 -26 4z"/>
<path d="M488 3373 c7 -3 16 -2 19 1 4 3 -2 6 -13 5 -11 0 -14 -3 -6 -6z"/>
<path d="M418 3363 c7 -3 16 -2 19 1 4 3 -2 6 -13 5 -11 0 -14 -3 -6 -6z"/>
<path d="M478 3353 c7 -3 16 -2 19 1 4 3 -2 6 -13 5 -11 0 -14 -3 -6 -6z"/>
<path d="M483 3323 c9 -2 23 -2 30 0 6 3 -1 5 -18 5 -16 0 -22 -2 -12 -5z"/>
<path d="M473 3303 c9 -2 23 -2 30 0 6 3 -1 5 -18 5 -16 0 -22 -2 -12 -5z"/>
<path d="M335 3290 c-3 -6 1 -7 9 -4 18 7 21 14 7 14 -6 0 -13 -4 -16 -10z"/>
<path d="M398 3283 c7 -3 16 -2 19 1 4 3 -2 6 -13 5 -11 0 -14 -3 -6 -6z"/>
<path d="M569 3272 c11 -8 9 -11 -10 -15 -22 -4 -22 -4 4 -6 30 -1 34 19 6 27
-12 3 -12 2 0 -6z"/>
<path d="M398 3263 c7 -3 16 -2 19 1 4 3 -2 6 -13 5 -11 0 -14 -3 -6 -6z"/>
<path d="M408 3233 c6 -2 18 -2 25 0 6 3 1 5 -13 5 -14 0 -19 -2 -12 -5z"/>
<path d="M543 3233 c9 -2 23 -2 30 0 6 3 -1 5 -18 5 -16 0 -22 -2 -12 -5z"/>
<path d="M643 3205 c0 -8 4 -12 9 -9 5 3 6 10 3 15 -9 13 -12 11 -12 -6z"/>
<path d="M468 3203 c12 -2 30 -2 40 0 9 3 -1 5 -23 4 -22 0 -30 -2 -17 -4z"/>
<path d="M386 3181 c-3 -4 6 -6 19 -3 14 2 25 6 25 8 0 8 -39 4 -44 -5z"/>
<path d="M518 3183 c7 -3 16 -2 19 1 4 3 -2 6 -13 5 -11 0 -14 -3 -6 -6z"/>
<path d="M825 3171 c-3 -6 2 -14 11 -18 16 -6 16 -7 -2 -14 -18 -6 -17 -8 6
-17 l25 -11 -25 -1 c-19 0 -21 -3 -11 -9 8 -5 21 -6 30 -3 14 5 14 3 3 -11
-17 -20 -7 -42 12 -25 11 10 9 21 -7 58 -23 54 -33 65 -42 51z"/>
<path d="M528 3163 c7 -3 16 -2 19 1 4 3 -2 6 -13 5 -11 0 -14 -3 -6 -6z"/>
<path d="M673 3155 c0 -8 4 -12 9 -9 5 3 6 10 3 15 -9 13 -12 11 -12 -6z"/>
<path d="M777 3143 c4 -11 3 -14 -5 -9 -7 4 -12 2 -12 -3 0 -6 11 -10 25 -9
23 2 23 3 8 20 -20 22 -24 23 -16 1z"/>
<path d="M770 3100 c-13 -8 -12 -10 4 -10 15 0 16 -3 6 -15 -10 -12 -10 -15 4
-15 9 0 16 7 16 16 0 9 5 12 13 8 8 -5 8 -2 -2 9 -15 20 -20 20 -41 7z"/>
<path d="M558 3083 c7 -3 16 -2 19 1 4 3 -2 6 -13 5 -11 0 -14 -3 -6 -6z"/>
<path d="M627 3069 c7 -7 15 -10 18 -7 3 3 -2 9 -12 12 -14 6 -15 5 -6 -5z"/>
<path d="M800 3050 c-24 -19 -24 -19 -3 -17 12 0 20 3 18 6 -3 2 0 10 6 18 16
18 8 16 -21 -7z"/>
<path d="M876 3045 c-3 -8 -11 -13 -18 -10 -7 3 -24 -5 -38 -16 -16 -13 -19
-19 -8 -15 10 3 20 1 23 -4 3 -4 0 -10 -6 -12 -7 -2 -6 -8 3 -16 12 -9 15 -8
15 6 0 9 -4 22 -9 29 -6 7 -4 14 3 19 7 4 15 2 17 -4 2 -7 8 -12 13 -12 6 0 7
5 4 10 -9 14 29 12 43 -2 9 -9 9 -5 0 15 -14 30 -33 35 -42 12z"/>
<path d="M870 2980 c-17 -11 -8 -23 14 -18 9 2 12 8 8 15 -5 8 -13 9 -22 3z"/>
<path d="M725 2969 c-4 -6 -5 -12 -2 -15 2 -3 7 2 10 11 7 17 1 20 -8 4z"/>
<path d="M746 2924 c-9 -24 -2 -26 12 -4 7 11 8 20 3 20 -5 0 -12 -7 -15 -16z"/>
<path d="M893 2895 c0 -8 4 -15 9 -15 4 0 8 4 8 9 0 6 -4 12 -8 15 -5 3 -9 -1
-9 -9z"/>
<path d="M936 2875 c-3 -9 -10 -13 -16 -10 -14 9 -12 -8 4 -30 12 -16 16 -17
30 -6 13 11 19 11 34 0 15 -12 16 -12 5 2 -7 9 -11 18 -8 20 2 3 -4 5 -15 5
-10 0 -18 -4 -17 -9 1 -5 -4 -12 -10 -14 -16 -6 -17 19 -1 35 6 6 9 14 6 17
-3 3 -8 -1 -12 -10z"/>
<path d="M1267 2826 c15 -18 31 -31 36 -29 7 4 -49 63 -60 63 -3 0 8 -15 24
-34z"/>
<path d="M892 2740 c0 -14 2 -19 5 -12 2 6 2 18 0 25 -3 6 -5 1 -5 -13z"/>
<path d="M1320 2726 c0 -2 7 -7 16 -10 8 -3 12 -2 9 4 -6 10 -25 14 -25 6z"/>
<path d="M614 2685 c-9 -22 4 -34 30 -29 15 2 26 -2 30 -12 3 -8 10 -12 16 -9
5 3 10 0 10 -7 0 -8 5 -6 11 5 6 10 8 21 5 24 -3 4 -6 0 -6 -8 0 -11 -2 -11
-10 1 -7 11 -10 12 -10 2 0 -8 -12 0 -26 17 -28 34 -42 38 -50 16z m36 -18 c0
-7 -4 -6 -10 3 -8 12 -10 12 -10 1 0 -8 -3 -12 -6 -8 -9 9 6 28 17 22 5 -4 9
-12 9 -18z"/>
<path d="M1290 2685 c0 -9 9 -15 21 -15 18 0 19 2 9 15 -7 8 -16 15 -21 15 -5
0 -9 -7 -9 -15z"/>
<path d="M881 2674 c0 -11 3 -14 6 -6 3 7 2 16 -1 19 -3 4 -6 -2 -5 -13z"/>
<path d="M1255 2660 c-6 -18 -9 -20 -16 -9 -5 8 -9 10 -9 4 0 -5 4 -15 8 -21
10 -15 42 20 32 36 -6 9 -10 6 -15 -10z"/>
<path d="M815 2650 c-16 -6 -12 -8 19 -14 21 -4 41 -5 44 -2 3 3 -4 6 -15 6
-12 0 -23 4 -25 9 -1 4 -12 5 -23 1z"/>
<path d="M1100 2649 c0 -5 -10 -9 -22 -10 -13 0 -18 -3 -11 -5 6 -3 26 -1 45
4 30 7 31 9 11 14 -13 3 -23 2 -23 -3z"/>
<path d="M727 2633 c-11 -10 -8 -25 3 -18 6 3 10 0 10 -7 0 -8 5 -6 11 5 6 10
8 21 5 24 -3 4 -6 0 -6 -8 0 -11 -2 -11 -8 -1 -5 7 -11 9 -15 5z"/>
<path d="M902 2628 c-9 -4 21 -7 67 -7 46 -1 82 2 79 5 -9 8 -126 10 -146 2z"/>
<path d="M1150 2620 c0 -13 5 -18 15 -14 12 5 13 10 4 20 -15 19 -19 18 -19
-6z"/>
<path d="M767 2624 c-18 -18 -6 -32 23 -28 17 3 30 1 30 -5 0 -14 27 -3 33 13
3 7 -1 13 -9 13 -8 0 -14 -4 -14 -8 0 -5 -7 -6 -15 -3 -8 4 -12 10 -9 15 3 5
0 9 -5 9 -6 0 -11 -8 -12 -17 0 -17 -1 -17 -8 0 -3 10 -10 15 -14 11z"/>
<path d="M1103 2615 c-3 -9 -3 -19 1 -22 3 -4 6 1 6 10 0 8 6 18 13 20 9 4 9
6 -1 6 -7 1 -15 -6 -19 -14z"/>
<path d="M1051 2603 c-8 -14 -12 -15 -25 -4 -14 12 -16 10 -15 -10 0 -13 3
-19 5 -13 3 7 14 10 24 7 14 -4 20 0 20 10 0 8 6 18 13 20 9 4 9 6 0 6 -7 1
-16 -7 -22 -16z"/>
<path d="M876 2594 c-8 -21 -8 -21 9 -21 8 0 15 9 15 19 0 22 -16 24 -24 2z"/>
<path d="M990 2598 c0 -9 -6 -19 -12 -21 -10 -4 -10 -6 0 -6 14 -1 28 26 18
36 -3 4 -6 -1 -6 -9z"/>
<path d="M1125 2600 c3 -5 8 -10 11 -10 2 0 4 5 4 10 0 6 -5 10 -11 10 -5 0
-7 -4 -4 -10z"/>
<path d="M942 2580 c0 -14 2 -19 5 -12 2 6 2 18 0 25 -3 6 -5 1 -5 -13z"/>
<path d="M1076 2583 c-6 -14 -5 -15 5 -6 7 7 10 15 7 18 -3 3 -9 -2 -12 -12z"/>
<path d="M798 2553 c7 -3 16 -2 19 1 4 3 -2 6 -13 5 -11 0 -14 -3 -6 -6z"/>
<path d="M1128 2553 c7 -3 16 -2 19 1 4 3 -2 6 -13 5 -11 0 -14 -3 -6 -6z"/>
<path d="M840 2543 c8 -3 18 -11 22 -17 5 -7 8 -4 8 7 0 11 -7 17 -22 16 -16
0 -18 -2 -8 -6z"/>
<path d="M1070 2533 c0 -11 3 -14 8 -7 4 6 14 14 22 17 10 4 8 6 -7 6 -16 1
-23 -5 -23 -16z"/>
<path d="M938 2533 c23 -2 59 -2 80 0 20 2 1 4 -43 4 -44 0 -61 -2 -37 -4z"/>
<path d="M1574 3818 l-19 -23 23 19 c21 18 27 26 19 26 -2 0 -12 -10 -23 -22z"/>
<path d="M1524 3808 l-19 -23 23 19 c21 18 27 26 19 26 -2 0 -12 -10 -23 -22z"/>
<path d="M1519 3763 l-24 -28 28 24 c25 23 32 31 24 31 -2 0 -14 -12 -28 -27z"/>
<path d="M1589 3753 l-24 -28 28 24 c25 23 32 31 24 31 -2 0 -14 -12 -28 -27z"/>
<path d="M1509 3723 c-13 -16 -12 -17 4 -4 16 13 21 21 13 21 -2 0 -10 -8 -17
-17z"/>
<path d="M1529 3703 c-13 -16 -12 -17 4 -4 9 7 17 15 17 17 0 8 -8 3 -21 -13z"/>
<path d="M1629 3683 c-13 -16 -12 -17 4 -4 9 7 17 15 17 17 0 8 -8 3 -21 -13z"/>
<path d="M1340 3665 c-7 -9 -11 -17 -9 -20 3 -2 10 5 17 15 14 24 10 26 -8 5z"/>
<path d="M1659 3643 l-24 -28 28 24 c25 23 32 31 24 31 -2 0 -14 -12 -28 -27z"/>
<path d="M1229 3613 c-13 -17 -13 -17 6 -3 11 8 22 16 24 17 2 2 0 3 -6 3 -6
0 -17 -8 -24 -17z"/>
<path d="M1288 3583 c6 -2 18 -2 25 0 6 3 1 5 -13 5 -14 0 -19 -2 -12 -5z"/>
<path d="M1331 3568 c-1 -33 4 -35 20 -7 6 13 7 19 1 15 -6 -3 -13 0 -15 6 -3
7 -6 1 -6 -14z"/>
<path d="M1623 3565 c0 -8 4 -12 9 -9 5 3 6 10 3 15 -9 13 -12 11 -12 -6z"/>
<path d="M1474 3549 c-3 -6 -3 -13 0 -16 3 -4 6 -1 6 5 0 6 7 9 15 6 8 -4 15
-4 15 -1 0 11 -30 16 -36 6z"/>
<path d="M1220 3534 c-20 -11 -21 -14 -7 -14 12 0 16 -4 11 -12 -4 -8 -3 -10
2 -5 5 5 9 14 9 20 0 7 20 15 45 18 l45 6 -40 1 c-22 0 -51 -6 -65 -14z"/>
<path d="M1477 3513 c-10 -9 -9 -23 1 -23 5 0 9 7 9 15 0 17 -1 18 -10 8z"/>
<path d="M1288 3503 c7 -3 16 -2 19 1 4 3 -2 6 -13 5 -11 0 -14 -3 -6 -6z"/>
<path d="M1221 3474 c0 -11 3 -14 6 -6 3 7 2 16 -1 19 -3 4 -6 -2 -5 -13z"/>
<path d="M1228 3443 c7 -3 16 -2 19 1 4 3 -2 6 -13 5 -11 0 -14 -3 -6 -6z"/>
<path d="M1447 3413 c-10 -9 -9 -23 1 -23 5 0 9 7 9 15 0 17 -1 18 -10 8z"/>
<path d="M1590 3400 c8 -5 20 -10 25 -10 6 0 3 5 -5 10 -8 5 -19 10 -25 10 -5
0 -3 -5 5 -10z"/>
<path d="M1651 3381 c-27 -14 -30 -19 -17 -24 10 -4 15 -3 11 3 -3 6 -2 10 2
10 5 0 18 7 29 15 26 19 16 18 -25 -4z"/>
<path d="M1348 3373 c7 -3 16 -2 19 1 4 3 -2 6 -13 5 -11 0 -14 -3 -6 -6z"/>
<path d="M1438 3373 c6 -2 18 -2 25 0 6 3 1 5 -13 5 -14 0 -19 -2 -12 -5z"/>
<path d="M1508 3363 c7 -3 16 -2 19 1 4 3 -2 6 -13 5 -11 0 -14 -3 -6 -6z"/>
<path d="M1448 3353 c7 -3 16 -2 19 1 4 3 -2 6 -13 5 -11 0 -14 -3 -6 -6z"/>
<path d="M1224 3333 c4 -4 16 -8 28 -10 28 -4 18 6 -12 12 -12 2 -20 1 -16 -2z"/>
<path d="M1428 3323 c6 -2 18 -2 25 0 6 3 1 5 -13 5 -14 0 -19 -2 -12 -5z"/>
<path d="M1458 3303 c7 -3 16 -2 19 1 4 3 -2 6 -13 5 -11 0 -14 -3 -6 -6z"/>
<path d="M1528 3283 c7 -3 16 -2 19 1 4 3 -2 6 -13 5 -11 0 -14 -3 -6 -6z"/>
<path d="M1223 3261 c0 -11 5 -18 9 -15 4 3 5 11 1 19 -7 21 -12 19 -10 -4z"/>
<path d="M1357 3273 c-17 -16 -3 -23 46 -21 l52 1 -50 7 -50 6 45 5 45 6 -41
1 c-22 1 -44 -1 -47 -5z"/>
<path d="M1528 3263 c7 -3 16 -2 19 1 4 3 -2 6 -13 5 -11 0 -14 -3 -6 -6z"/>
<path d="M1368 3233 c6 -2 18 -2 25 0 6 3 1 5 -13 5 -14 0 -19 -2 -12 -5z"/>
<path d="M1285 3211 c-3 -5 -2 -12 3 -15 5 -3 9 1 9 9 0 17 -3 19 -12 6z"/>
<path d="M1438 3203 c12 -2 30 -2 40 0 9 3 -1 5 -23 4 -22 0 -30 -2 -17 -4z"/>
<path d="M1408 3183 c7 -3 16 -2 19 1 4 3 -2 6 -13 5 -11 0 -14 -3 -6 -6z"/>
<path d="M1500 3186 c0 -2 13 -6 29 -8 17 -2 28 -1 25 4 -5 8 -54 12 -54 4z"/>
<path d="M1255 3161 c-3 -5 -2 -12 3 -15 5 -3 9 1 9 9 0 17 -3 19 -12 6z"/>
<path d="M1398 3163 c7 -3 16 -2 19 1 4 3 -2 6 -13 5 -11 0 -14 -3 -6 -6z"/>
<path d="M1378 3143 c7 -3 16 -2 19 1 4 3 -2 6 -13 5 -11 0 -14 -3 -6 -6z"/>
<path d="M1236 3111 c-4 -5 -2 -12 3 -15 5 -4 12 -2 15 3 4 5 2 12 -3 15 -5 4
-12 2 -15 -3z"/>
<path d="M1300 3070 c-9 -6 -10 -10 -3 -10 6 0 15 5 18 10 8 12 4 12 -15 0z"/>
<path d="M1284 3046 c11 -9 27 -16 35 -15 14 0 14 1 1 6 -8 3 -24 10 -35 15
-20 9 -20 9 -1 -6z"/>
<path d="M855 3900 c3 -5 12 -10 20 -10 8 0 17 5 20 10 4 6 -5 10 -20 10 -15
0 -24 -4 -20 -10z"/>
<path d="M971 3874 c0 -11 3 -14 6 -6 3 7 2 16 -1 19 -3 4 -6 -2 -5 -13z"/>
<path d="M1048 3753 c6 -2 18 -2 25 0 6 3 1 5 -13 5 -14 0 -19 -2 -12 -5z"/>
<path d="M914 3743 c9 -9 106 -10 106 -1 0 5 -25 8 -57 8 -31 0 -53 -3 -49 -7z"/>
<path d="M883 3713 c-3 -10 -8 -22 -11 -27 -3 -5 0 -6 5 -3 11 7 25 47 17 47
-3 0 -7 -8 -11 -17z"/>
<path d="M931 3697 c-13 -21 -12 -21 5 -5 10 10 16 20 13 22 -3 3 -11 -5 -18
-17z"/>
<path d="M1048 3702 c-3 -11 0 -19 7 -19 7 0 10 8 7 19 -2 10 -6 18 -7 18 -1
0 -5 -8 -7 -18z"/>
<path d="M1054 3595 c-8 -19 5 -38 22 -31 9 3 14 -1 15 -12 0 -10 3 -12 5 -5
3 7 1 20 -5 30 -6 10 -11 12 -11 6 0 -7 -5 -13 -11 -13 -6 0 -9 9 -6 20 6 23
-1 27 -9 5z"/>
<path d="M911 3593 c-1 -6 -4 -20 -7 -30 -5 -17 -5 -17 6 0 6 10 9 23 6 30 -3
9 -5 9 -5 0z"/>
<path d="M981 3554 c0 -11 3 -14 6 -6 3 7 2 16 -1 19 -3 4 -6 -2 -5 -13z"/>
<path d="M2220 3165 l0 -235 570 0 570 0 0 235 0 235 -570 0 -570 0 0 -235z
m1100 0 l0 -195 -530 0 -530 0 0 195 0 195 530 0 530 0 0 -195z"/>
<path d="M2340 3170 l0 -130 70 0 70 0 0 130 0 130 -70 0 -70 0 0 -130z"/>
<path d="M2580 3170 l0 -130 70 0 70 0 0 130 0 130 -70 0 -70 0 0 -130z"/>
<path d="M2840 3170 l0 -130 70 0 70 0 0 130 0 130 -70 0 -70 0 0 -130z"/>
<path d="M3090 3170 l0 -130 70 0 70 0 0 130 0 130 -70 0 -70 0 0 -130z"/>
<path d="M2060 3135 l0 -165 40 0 40 0 0 165 0 165 -40 0 -40 0 0 -165z"/>
<path d="M3420 3135 l0 -165 40 0 40 0 0 165 0 165 -40 0 -40 0 0 -165z"/>
<path d="M1225 2950 c-3 -6 1 -7 9 -4 18 7 21 14 7 14 -6 0 -13 -4 -16 -10z"/>
<path d="M628 2788 c-14 -14 -15 -18 -4 -18 8 0 17 7 20 16 9 23 4 24 -16 2z"/>
<path d="M549 2728 c0 -2 -2 -11 -4 -21 -3 -15 -1 -16 11 -6 7 6 11 15 8 20
-5 9 -13 12 -15 7z"/>
<path d="M2871 1631 c-13 -24 9 -57 33 -48 23 9 31 34 16 52 -17 20 -37 19
-49 -4z"/>
<path d="M2930 1530 c0 -13 7 -20 18 -20 24 0 32 8 25 26 -8 22 -43 17 -43 -6z"/>
<path d="M2975 1480 c-8 -14 3 -30 21 -30 8 0 14 9 14 20 0 21 -24 28 -35 10z"/>
<path d="M2993 1414 c-7 -19 11 -39 26 -30 16 10 13 33 -4 40 -9 3 -18 -1 -22
-10z"/>
<path d="M3000 1330 c0 -15 5 -20 18 -18 9 2 17 10 17 18 0 8 -8 16 -17 18
-13 2 -18 -3 -18 -18z"/>
</g>
</svg>
